<svg xmlns="http://www.w3.org/2000/svg" width="1600" height="900" viewBox="0 0 1600 900">
<rect width="100%" height="100%" fill="#f8fafc"/>
<defs><marker id="flecha" markerWidth="10" markerHeight="10" refX="9" refY="3" orient="auto"><path d="M0,0 L0,6 L9,3 z" fill="#475569"/></marker></defs>
<text x="60" y="65" font-family="Arial" font-size="34" font-weight="700" fill="#172033">Arquitectura final y estado de validacion</text>
<line x1="330" y1="385" x2="430" y2="385" stroke="#475569" stroke-width="3" marker-end="url(#flecha)"/>
<line x1="650" y1="385" x2="780" y2="215" stroke="#475569" stroke-width="3" marker-end="url(#flecha)"/>
<line x1="650" y1="385" x2="780" y2="565" stroke="#475569" stroke-width="3" marker-end="url(#flecha)"/>
<line x1="1040" y1="565" x2="1140" y2="565" stroke="#475569" stroke-width="3" marker-end="url(#flecha)"/>
<line x1="1250" y1="630" x2="1250" y2="700" stroke="#475569" stroke-width="3" marker-end="url(#flecha)"/>
<rect x="80" y="320" width="250" height="130" rx="14" fill="#dbf5ee" stroke="#0f172a" stroke-width="2"/>
<text x="205.0" y="378.0" text-anchor="middle" font-family="Arial" font-size="21" font-weight="600" fill="#172033">Navegador</text>
<text x="205.0" y="406.0" text-anchor="middle" font-family="Arial" font-size="21" font-weight="600" fill="#172033">HTML, CSS y JS</text>
<rect x="430" y="320" width="220" height="130" rx="14" fill="#dbf5ee" stroke="#0f172a" stroke-width="2"/>
<text x="540.0" y="392.0" text-anchor="middle" font-family="Arial" font-size="21" font-weight="600" fill="#172033">API FastAPI</text>
<rect x="780" y="150" width="300" height="130" rx="14" fill="#fff2cc" stroke="#0f172a" stroke-width="2"/>
<text x="930.0" y="208.0" text-anchor="middle" font-family="Arial" font-size="21" font-weight="600" fill="#172033">SQLite ejecutado</text>
<text x="930.0" y="236.0" text-anchor="middle" font-family="Arial" font-size="21" font-weight="600" fill="#172033">PostgreSQL configurado</text>
<rect x="780" y="500" width="260" height="130" rx="14" fill="#dbf5ee" stroke="#0f172a" stroke-width="2"/>
<text x="910.0" y="572.0" text-anchor="middle" font-family="Arial" font-size="21" font-weight="600" fill="#172033">Motor de evaluacion</text>
<rect x="1140" y="500" width="220" height="130" rx="14" fill="#fff2cc" stroke="#0f172a" stroke-width="2"/>
<text x="1250.0" y="572.0" text-anchor="middle" font-family="Arial" font-size="21" font-weight="600" fill="#172033">Adaptador Docker</text>
<rect x="1140" y="700" width="220" height="110" rx="14" fill="#fee2e2" stroke="#0f172a" stroke-width="2"/>
<text x="1250.0" y="762.0" text-anchor="middle" font-family="Arial" font-size="21" font-weight="600" fill="#172033">Contenedor efimero</text>
<rect x="60" y="835" width="34" height="24" rx="5" fill="#dbf5ee" stroke="#0f172a"/>
<text x="104" y="854" font-family="Arial" font-size="17" fill="#172033">Ejecutado</text>
<rect x="320" y="835" width="34" height="24" rx="5" fill="#fff2cc" stroke="#0f172a"/>
<text x="364" y="854" font-family="Arial" font-size="17" fill="#172033">Configurado</text>
<rect x="580" y="835" width="34" height="24" rx="5" fill="#fee2e2" stroke="#0f172a"/>
<text x="624" y="854" font-family="Arial" font-size="17" fill="#172033">No validado</text>
<rect x="840" y="835" width="34" height="24" rx="5" fill="#e0e7ff" stroke="#0f172a"/>
<text x="884" y="854" font-family="Arial" font-size="17" fill="#172033">Frontera</text>
</svg>
