<svg xmlns="http://www.w3.org/2000/svg" width="1600" height="900" viewBox="0 0 1600 900">
<rect width="100%" height="100%" fill="#f8fafc"/>
<defs><marker id="flecha" markerWidth="10" markerHeight="10" refX="9" refY="3" orient="auto"><path d="M0,0 L0,6 L9,3 z" fill="#475569"/></marker></defs>
<text x="60" y="65" font-family="Arial" font-size="34" font-weight="700" fill="#172033">Limites de confianza del sandbox</text>
<line x1="320" y1="390" x2="430" y2="390" stroke="#475569" stroke-width="3" marker-end="url(#flecha)"/>
<line x1="530" y1="450" x2="540" y2="600" stroke="#475569" stroke-width="3" marker-end="url(#flecha)"/>
<line x1="630" y1="390" x2="780" y2="390" stroke="#475569" stroke-width="3" marker-end="url(#flecha)"/>
<line x1="1030" y1="390" x2="1150" y2="390" stroke="#475569" stroke-width="3" marker-end="url(#flecha)"/>
<line x1="1270" y1="450" x2="1270" y2="650" stroke="#475569" stroke-width="3" marker-end="url(#flecha)"/>
<rect x="80" y="330" width="240" height="120" rx="14" fill="#fee2e2" stroke="#0f172a" stroke-width="2"/>
<text x="200.0" y="383.0" text-anchor="middle" font-family="Arial" font-size="21" font-weight="600" fill="#172033">Navegador</text>
<text x="200.0" y="411.0" text-anchor="middle" font-family="Arial" font-size="21" font-weight="600" fill="#172033">NO CONFIABLE</text>
<rect x="430" y="330" width="200" height="120" rx="14" fill="#dbf5ee" stroke="#0f172a" stroke-width="2"/>
<text x="530.0" y="397.0" text-anchor="middle" font-family="Arial" font-size="21" font-weight="600" fill="#172033">API</text>
<rect x="430" y="600" width="220" height="110" rx="14" fill="#dbf5ee" stroke="#0f172a" stroke-width="2"/>
<text x="540.0" y="662.0" text-anchor="middle" font-family="Arial" font-size="21" font-weight="600" fill="#172033">Base de datos</text>
<rect x="780" y="330" width="250" height="120" rx="14" fill="#fff2cc" stroke="#0f172a" stroke-width="2"/>
<text x="905.0" y="397.0" text-anchor="middle" font-family="Arial" font-size="21" font-weight="600" fill="#172033">Trabajador / adaptador</text>
<rect x="1150" y="330" width="240" height="120" rx="14" fill="#fee2e2" stroke="#0f172a" stroke-width="2"/>
<text x="1270.0" y="383.0" text-anchor="middle" font-family="Arial" font-size="21" font-weight="600" fill="#172033">Contenedor</text>
<text x="1270.0" y="411.0" text-anchor="middle" font-family="Arial" font-size="21" font-weight="600" fill="#172033">red bloqueada</text>
<rect x="1080" y="650" width="380" height="110" rx="14" fill="#e0e7ff" stroke="#0f172a" stroke-width="2"/>
<text x="1270.0" y="712.0" text-anchor="middle" font-family="Arial" font-size="21" font-weight="600" fill="#172033">Host dedicado o VM</text>
<rect x="60" y="835" width="34" height="24" rx="5" fill="#dbf5ee" stroke="#0f172a"/>
<text x="104" y="854" font-family="Arial" font-size="17" fill="#172033">Ejecutado</text>
<rect x="320" y="835" width="34" height="24" rx="5" fill="#fff2cc" stroke="#0f172a"/>
<text x="364" y="854" font-family="Arial" font-size="17" fill="#172033">Configurado</text>
<rect x="580" y="835" width="34" height="24" rx="5" fill="#fee2e2" stroke="#0f172a"/>
<text x="624" y="854" font-family="Arial" font-size="17" fill="#172033">No validado</text>
<rect x="840" y="835" width="34" height="24" rx="5" fill="#e0e7ff" stroke="#0f172a"/>
<text x="884" y="854" font-family="Arial" font-size="17" fill="#172033">Frontera</text>
</svg>
